<svg id="a2e78a25-bd0f-47b1-ae73-8c88b6544cc9" data-name="Layer 1" xmlns="http://www.w3.org/2000/svg" viewBox="0 0 297 297"><title>logo</title><circle cx="148.5" cy="148.5" r="148.5" fill="#d0d5d9"/><path d="M148.5,82.5L112,220.07,184.5,292.6a148.8,148.8,0,0,0,96.7-77.39Z" fill="#a1a5a8"/><path d="M97.5,184.5c0-28.17,51-102,51-102s51,73.83,51,102A51,51,0,0,1,97.5,184.5Z" fill="#d95459"/><path d="M148.5,82.5s51,73.83,51,102a51,51,0,0,1-51,51V82.5Z" fill="#c63c22"/><polygon points="166.79 180.28 155.52 180.28 155.52 169 140.48 169 140.48 180.28 129.21 180.28 129.21 195.31 140.48 195.31 140.48 206.59 155.52 206.59 155.52 195.31 166.79 195.31 166.79 180.28" fill="#fff"/></svg>